<?xml version="1.0" encoding="UTF-8"?><svg id="a" xmlns="http://www.w3.org/2000/svg" viewBox="0 0 521.1 179.71"><defs><style>.b{fill:#00251a;}</style></defs><g><g><path class="b" d="M147.43,83.55l-25.38-43.97c-2-3.47-6.91-6.3-10.92-6.3H60.36c-4,0-8.92,2.84-10.92,6.3l-25.38,43.97c-2,3.47-2,9.14,0,12.61l25.38,43.97c2,3.47,6.91,6.3,10.92,6.3h50.77c4,0,8.92-2.84,10.92-6.3l25.38-43.97c2-3.47,2-9.14,0-12.61Zm-10.2,8.47l-23.87,41.35c-.54,.93-2.67,2.16-3.75,2.16H61.87c-1.07,0-3.21-1.23-3.75-2.16l-23.87-41.35c-.54-.93-.54-3.4,0-4.33l23.87-41.35c.54-.93,2.67-2.16,3.75-2.16h47.74c1.07,0,3.21,1.23,3.75,2.16l23.87,41.35c.54,.93,.54,3.4,0,4.33Z"/><rect class="b" x="48.02" y="90.59" width="37.72" height="8.01"/><rect class="b" x="55.42" y="104.95" width="30.33" height="8.01"/><rect class="b" x="62.81" y="119.31" width="22.93" height="8.01"/></g><g><path class="b" d="M237.11,74.34v.14c0,1.3-.65,1.94-1.94,1.94h-57.59c-1.3,0-1.94-.65-1.94-1.94v-.14c0-1.3,.65-1.94,1.94-1.94h25.12v-11.45c0-1.3,.65-1.94,1.94-1.94h3.46c1.3,0,1.94,.65,1.94,1.94v11.45h25.12c1.3,0,1.94,.65,1.94,1.94Zm-39.3,14.68c-3.38,10.8-8.13,20.8-14.68,30.45-.72,1.01-1.58,1.15-2.66,.58l-2.23-1.22c-1.15-.65-1.37-1.58-.65-2.66,5.47-8.42,10.01-18.28,13.39-29.37,.36-1.22,1.22-1.66,2.45-1.22l3.17,1.08c1.15,.36,1.58,1.22,1.22,2.37Zm22.53-2.81c6.05,10.44,11.3,20.59,15.55,30.45,.5,1.15,.14,2.09-1.01,2.59l-2.88,1.22c-1.15,.5-2.02,.07-2.52-1.08-4.53-10.8-9.57-20.87-14.76-30.09-.65-1.15-.36-2.09,.72-2.66l2.3-1.22c1.08-.58,1.94-.29,2.59,.79Z"/><path class="b" d="M284.55,59.94c-.29,.58-.58,1.3-1.01,2.16h21.74c1.3,0,1.94,.65,1.94,1.94v.14c0,1.01-.22,1.66-.79,2.45-1.58,1.94-3.89,4.32-6.84,7.13h19.51c1.3,0,1.94,.65,1.94,1.94v37.72c0,7.63-.94,8.64-9.5,8.64-.86,0-3.82-.14-8.71-.29-1.3-.07-2.02-.72-2.02-1.94-.07-1.22,.65-1.87,2.02-1.8,4.61,.14,7.2,.36,7.92,.36,3.1,0,3.17-.07,3.17-4.75v-8.28h-39.88c-1.01,5.9-3.09,11.3-6.62,16.48-.72,1.08-1.73,1.22-2.74,.43l-2.09-1.73c-.94-.79-1.08-1.66-.5-2.66,4.39-7.2,6.12-15.76,6.12-30.59v-5.83l-3.02,2.45c-1.08,.86-2.09,.65-2.66-.58l-.72-1.44c-.5-1.08-.36-1.87,.58-2.66,6.69-5.61,11.95-12.67,15.76-21.02,.5-1.08,1.3-1.44,2.45-1.22l2.66,.5c1.37,.29,1.87,1.22,1.3,2.45Zm-9.93,41.89h15.4v-10.73h-14.68c-.07,3.89-.29,7.34-.72,10.73Zm15.4-24.4h-14.68v10.22h14.68v-10.22Zm-14.32-3.67h16.48c2.3-2.09,4.89-4.75,7.85-8.13h-18.5c-1.37,2.3-3.24,4.97-5.83,8.13Zm38.22,3.67h-16.84v10.22h16.84v-10.22Zm0,13.68h-16.84v10.73h16.84v-10.73Z"/><path class="b" d="M400.29,96.08c0,1.08-.36,1.73-1.3,2.3-4.75,2.95-10.51,5.83-17.2,8.57h27.93c1.3,0,1.94,.65,1.94,1.94,0,1.08-.65,1.66-1.94,1.66h-25.84v7.34c0,4.17-1.08,4.89-9.43,4.89-2.88,0-6.19-.07-10.01-.29-1.15-.07-1.87-.72-1.94-1.94-.07-1.22,.65-1.87,2.02-1.8,4.68,.14,7.7,.36,9.14,.36,3.17,0,2.81,.36,2.81-2.95v-5.61h-27.93c-1.3,0-1.94-.65-1.94-1.94,0-1.08,.65-1.66,1.94-1.66h27.93v-1.37c0-1.3,.65-1.94,1.94-1.94h2.02c3.53-1.44,7.41-3.31,12.17-5.83h-32.68c-1.3,0-1.94-.65-1.94-1.94,0-.86,.65-1.37,1.94-1.37h38.44c1.3,0,1.94,.58,1.94,1.58Zm-48.3-33.26c4.1-.43,8.93-1.3,14.47-2.38,1.3-.29,2.09,.29,2.3,1.44,.22,1.15-.29,1.94-1.58,2.16-3.24,.65-6.55,1.15-9.72,1.66l.14,3.89h9c1.3,0,1.94,.65,1.94,1.94,0,.58-.65,.86-1.94,.86h-8.85l.22,5.25h8.64c1.3,0,1.94,.65,1.94,1.94,0,.58-.65,.94-1.94,.94h-8.49l.22,5.47h41.61l.14-5.47h-8.42c-1.3,0-1.94-.65-1.94-1.94,0-.58,.65-.94,1.94-.94h8.57l.14-5.25h-8.71c-1.3,0-1.94-.65-1.94-1.94,0-.58,.65-.86,1.94-.86h8.85l.22-5.04h-9.5c-1.3,0-1.94-.65-1.94-1.94,0-.94,.65-1.44,1.94-1.44h14.9c1.3,0,2.02,.72,1.94,2.02l-1.01,22.82h2.3c1.3,0,1.94,.65,1.94,1.94v7.92c0,1.3-.65,1.94-1.94,1.94h-3.24c-1.3,0-1.94-.65-1.94-1.94v-6.55h-50.1v6.55c0,1.3-.65,1.94-1.94,1.94h-3.24c-1.3,0-1.94-.65-1.94-1.94v-7.92c0-1.3,.65-1.94,1.94-1.94h2.23l-.94-21.09c-.07-1.22,.58-1.94,1.8-2.09Zm35.7-1.58c-1.08,1.08-2.38,2.23-4.03,3.53l3.89,2.66c1.08,.79,1.22,1.73,.36,2.74l-.86,1.08,.07,.07c1.37,.5,1.66,1.58,.65,2.59-1.08,1.15-2.45,2.3-4.1,3.6l3.89,2.66c1.08,.79,1.15,1.66,.36,2.74l-.22,.29c-.79,1.01-1.73,1.08-2.81,.29-2.16-1.58-3.82-2.74-4.89-3.53-1.94,1.15-4.46,2.45-7.41,3.6-1.08,.43-1.87,.22-2.66-.5-.94-.86-.65-1.8,.72-2.38,1.73-.79,3.6-1.8,5.61-3.02-2.09-1.22-3.82-2.23-5.18-2.88-1.22-.65-1.51-1.58-.65-2.66l.58-.72-.86-.79c-1.08-1.01-.86-2.09,.5-2.66,1.73-.72,3.6-1.73,5.61-3.02-2.09-1.22-3.82-2.23-5.18-2.88-1.22-.65-1.44-1.58-.65-2.66,.58-.79,1.37-.94,2.45-.43,2.95,1.3,5.18,2.45,6.91,3.45,1.15-.94,2.38-2.02,3.74-3.45,.72-.86,1.58-1.08,2.66-.65l.86,.36c1.37,.58,1.66,1.58,.65,2.59Zm-15.69,9.86c3.31,1.51,5.9,2.95,7.77,4.03,1.37-1.08,2.95-2.59,4.75-4.68-1.3-.86-2.74-1.94-4.53-3.17-2.02,1.22-4.68,2.52-7.99,3.82Z"/><path class="b" d="M455.43,66.64c-3.82,9.72-5.54,13.17-6.91,16.63,5.25,6.41,6.48,10.29,6.48,15.98,0,6.05-2.88,9.14-10.08,9.14-1.08,0-1.73-.58-1.94-1.73-.22-1.15,.43-1.87,1.8-1.87h-.58c3.1,0,4.32-1.3,4.32-6.62s-1.44-8.57-5.25-13.6c-.72-.86-.79-1.66-.36-2.66,2.3-5.25,4.82-11.01,6.55-17.06h-8.57v55.5c0,1.3-.65,1.94-1.94,1.94h-2.45c-1.3,0-1.94-.65-1.94-1.94V63.32c0-1.3,.65-1.94,1.94-1.94h17.49c1.3,0,1.94,.65,1.94,1.94v.86c0,.86-.14,1.51-.5,2.45Zm40.6,25.63c0,1.3-.65,1.94-1.94,1.94h-9.86v20.08c0,3.31-.5,3.24,3.53,3.24,2.3,0,2.66,0,3.38-1.94,.29-.79,.58-3.96,.72-9.14,.07-1.37,.79-2.02,2.09-1.87l2.81,.29c1.22,.14,1.8,.79,1.8,2.09-.07,2.16-.07,3.46-.29,5.61-.22,2.81-.22,5.69-2.59,7.56-.86,.72-2.3,.79-3.24,1.01-.65,.14-3.82,.22-4.89,.22-9,0-10.44-.86-10.44-5.25v-21.88h-4.18c-.14,15.04-4.82,22.03-19.58,27.64-1.08,.43-1.94,.14-2.59-.86l-.22-.43c-.72-1.15-.36-2.09,.86-2.59,10.58-4.25,14.25-10.29,14.54-23.75h-6.69c-1.3,0-1.94-.65-1.94-1.94,0-1.22,.65-1.87,1.94-1.87h34.84c1.3,0,1.94,.65,1.94,1.87Zm1.01-24.04v9.65c0,1.3-.65,1.94-1.94,1.94h-3.31c-1.3,0-1.94-.65-1.94-1.94v-7.92h-26.42v7.92c0,1.3-.65,1.94-1.94,1.94h-3.1c-1.3,0-1.94-.65-1.94-1.94v-9.65c0-1.3,.65-1.94,1.94-1.94h13.89v-6.05c0-1.3,.65-1.94,1.94-1.94h3.45c1.3,0,1.94,.65,1.94,1.94v6.05h15.48c1.3,0,1.94,.65,1.94,1.94Zm-8.42,10.8c0,1.22-.65,1.87-1.94,1.87h-19.94c-1.3,0-1.94-.65-1.94-1.94,0-1.15,.65-1.73,1.94-1.73h19.94c1.3,0,1.94,.65,1.94,1.8Z"/></g></g></svg>