<?xml version="1.0" encoding="UTF-8"?><svg id="a" xmlns="http://www.w3.org/2000/svg" xmlns:xlink="http://www.w3.org/1999/xlink" viewBox="0 0 841.89 595.28"><defs><style>.f,.g{fill:none;}.h,.i{fill:#00251a;}.j{fill:#0c9;}.k{fill:#fff;}.i{stroke-width:.5px;}.i,.g{stroke:#00251a;stroke-miterlimit:10;}.g{stroke-width:2px;}.l{clip-path:url(#c);}.m{clip-path:url(#b);}.n{clip-path:url(#e);}.o{clip-path:url(#d);}</style><clipPath id="b"><rect class="f" x="-5.54" y="-10.33" width="854.8" height="610.78"/></clipPath><clipPath id="c"><rect class="f" x="68.13" width="68.13" height="68.13"/></clipPath><clipPath id="d"><rect class="f" x="0" y="136.27" width="68.13" height="68.13"/></clipPath><clipPath id="e"><rect class="f" x="773.76" y="390.88" width="68.13" height="68.13" transform="translate(1232.76 -382.88) rotate(90)"/></clipPath></defs><g><path class="i" d="M286.03,157.81v-3.45h-3.5v-28.04h3.5v-3.5h14.07v7.11h-3.61v-3.5h-6.85v27.78h6.85v-3.45h3.61v3.61h-3.45v3.45h-10.62Z"/><path class="i" d="M326.21,126.42h-10.46v10.36h7.01v3.61h-7.01v13.81h10.46v3.61h-17.58v-35h17.58v3.61Z"/><path class="i" d="M352.31,126.31h3.51v14.12h-3.51v3.3h3.51v14.07h-7.12v-13.92h-6.85v13.92h-7.11v-35h17.58v3.5Zm-10.46,.1v13.86h6.85v-13.86h-6.85Z"/><path class="i" d="M364.34,122.81h21.03v3.61h-6.96v31.39h-7.11v-31.39h-6.96v-3.61Z"/><path class="i" d="M401.01,157.81h-7.11v-35h7.11v35Z"/><path class="i" d="M430.62,126.42h-10.46v10.36h7.01v3.61h-7.01v17.42h-7.11v-35h17.58v3.61Z"/><path class="i" d="M446.26,157.81h-7.11v-35h7.11v35Z"/><path class="i" d="M461.8,157.81v-3.45h-3.5v-28.04h3.5v-3.5h14.07v7.11h-3.61v-3.5h-6.85v27.78h6.85v-3.45h3.61v3.61h-3.45v3.45h-10.62Z"/><path class="i" d="M487.9,133.27h3.5v-10.46h7.11v10.46h3.45v10.46h3.5v14.07h-7.11v-10.46h-10.31v10.46h-3.66v-14.07h3.5v-10.46Zm3.61,.16v10.31h3.35v-10.31h-3.35Z"/><path class="i" d="M510.5,122.81h21.03v3.61h-6.96v31.39h-7.11v-31.39h-6.96v-3.61Z"/><path class="i" d="M557.64,126.42h-10.46v10.36h7.01v3.61h-7.01v13.81h10.46v3.61h-17.58v-35h17.58v3.61Z"/></g><g class="m"><rect x="-195.31" y="385.74" width="415.37" height="39.24" transform="translate(417.74 392.98) rotate(90)"/><g><path class="h" d="M440.8,90.78l-8.17-14.15c-.64-1.12-2.23-2.03-3.51-2.03h-16.34c-1.29,0-2.87,.91-3.51,2.03l-8.17,14.15c-.64,1.12-.64,2.94,0,4.06l8.17,14.15c.64,1.12,2.23,2.03,3.51,2.03h16.34c1.29,0,2.87-.91,3.51-2.03l8.17-14.15c.64-1.12,.64-2.94,0-4.06Zm-3.28,2.72l-7.68,13.31c-.17,.3-.86,.7-1.21,.7h-15.36c-.35,0-1.03-.4-1.21-.7l-7.68-13.31c-.17-.3-.17-1.09,0-1.39l7.68-13.31c.17-.3,.86-.7,1.21-.7h15.36c.35,0,1.03,.4,1.21,.7l7.68,13.31c.17,.3,.17,1.09,0,1.39Z"/><rect class="h" x="408.81" y="93.04" width="12.14" height="2.58"/><rect class="h" x="411.19" y="97.66" width="9.76" height="2.58"/><rect class="h" x="413.57" y="102.29" width="7.38" height="2.58"/></g><rect class="g" x="155.31" y="-91.31" width="531.28" height="777.89" transform="translate(718.58 -123.31) rotate(90)"/><rect class="g" x="165.31" y="-81.31" width="511.28" height="757.89" transform="translate(718.58 -123.31) rotate(90)"/><rect class="k" x="750.22" y="-27.65" width="119.33" height="119.33"/><rect class="i" width="68.13" height="68.13"/><rect class="i" y="68.13" width="68.13" height="68.13"/><rect class="i" y="136.27" width="68.13" height="68.13"/><rect class="j" x="68.13" width="68.13" height="68.13"/><path class="j" d="M34.07,68.13c18.81,0,34.07-15.25,34.07-34.07H0C0,52.88,15.25,68.13,34.07,68.13Z"/><path class="j" d="M34.07,0V68.13c18.81,0,34.07-15.25,34.07-34.07S52.88,0,34.07,0Z"/><g class="l"><g><rect class="i" x="-19.24" y="27.66" width="145.55" height="5.27" transform="translate(3.93 66.67) rotate(-65.75)"/><rect class="i" x="-10.86" y="31.43" width="145.55" height="5.27" transform="translate(5.43 76.53) rotate(-65.75)"/><rect class="i" x="-2.49" y="35.2" width="145.55" height="5.27" transform="translate(6.92 86.38) rotate(-65.75)"/><rect class="i" x="5.88" y="38.97" width="145.55" height="5.27" transform="translate(8.42 96.24) rotate(-65.75)"/><rect class="i" x="14.26" y="42.74" width="145.55" height="5.27" transform="translate(9.91 106.1) rotate(-65.75)"/><rect class="i" x="22.63" y="46.52" width="145.55" height="5.27" transform="translate(11.41 115.96) rotate(-65.75)"/><rect class="i" x="31" y="50.29" width="145.55" height="5.27" transform="translate(12.91 125.81) rotate(-65.75)"/><rect class="i" x="39.38" y="54.06" width="145.55" height="5.27" transform="translate(14.4 135.67) rotate(-65.75)"/><rect class="i" x="47.75" y="57.83" width="145.55" height="5.27" transform="translate(15.9 145.53) rotate(-65.75)"/><rect class="i" x="56.12" y="61.6" width="145.55" height="5.27" transform="translate(17.39 155.39) rotate(-65.75)"/><rect class="i" x="64.5" y="65.37" width="145.55" height="5.27" transform="translate(18.89 165.24) rotate(-65.75)"/><rect class="i" x="72.87" y="69.14" width="145.55" height="5.27" transform="translate(20.39 175.1) rotate(-65.75)"/></g></g><rect x="68.13" y="68.13" width="68.13" height="68.13"/><rect x="204.4" y="0" width="68.13" height="68.13"/><rect x="775.82" y="0" width="68.13" height="68.13"/><rect class="j" x="136.27" width="68.13" height="68.13"/><rect class="j" x="34.07" y="136.27" width="34.07" height="68.13"/><rect class="i" x="170.33" width="34.07" height="34.07"/><g class="o"><g><rect class="i" x="-87.37" y="163.93" width="145.55" height="5.27" transform="translate(-160.47 84.85) rotate(-65.75)"/><rect class="i" x="-79" y="167.7" width="145.55" height="5.27" transform="translate(-158.97 94.71) rotate(-65.75)"/><rect class="i" x="-70.62" y="171.47" width="145.55" height="5.27" transform="translate(-157.48 104.57) rotate(-65.75)"/><rect class="i" x="-62.25" y="175.24" width="145.55" height="5.27" transform="translate(-155.98 114.43) rotate(-65.75)"/><rect class="i" x="-53.88" y="179.01" width="145.55" height="5.27" transform="translate(-154.49 124.28) rotate(-65.75)"/><rect class="i" x="-45.5" y="182.78" width="145.55" height="5.27" transform="translate(-152.99 134.14) rotate(-65.75)"/><rect class="i" x="-37.13" y="186.55" width="145.55" height="5.27" transform="translate(-151.49 144) rotate(-65.75)"/><rect class="i" x="-28.76" y="190.33" width="145.55" height="5.27" transform="translate(-150 153.85) rotate(-65.75)"/><rect class="i" x="-20.38" y="194.1" width="145.55" height="5.27" transform="translate(-148.5 163.71) rotate(-65.75)"/><rect class="i" x="-12.01" y="197.87" width="145.55" height="5.27" transform="translate(-147.01 173.57) rotate(-65.75)"/><rect class="i" x="-3.64" y="201.64" width="145.55" height="5.27" transform="translate(-145.51 183.43) rotate(-65.75)"/><rect class="i" x="4.74" y="205.41" width="145.55" height="5.27" transform="translate(-144.01 193.28) rotate(-65.75)"/></g></g><rect class="i" x="136.27" y="34.07" width="34.07" height="34.07"/><rect class="i" x="773.76" y="527.14" width="68.13" height="68.13" transform="translate(1615.65 1122.42) rotate(180)"/><rect class="i" x="773.76" y="459.01" width="68.13" height="68.13" transform="translate(1615.65 986.15) rotate(180)"/><rect class="i" x="773.76" y="390.88" width="68.13" height="68.13" transform="translate(1615.65 849.88) rotate(180)"/><rect x="705.62" y="527.14" width="68.13" height="68.13" transform="translate(1479.38 1122.42) rotate(180)"/><path class="j" d="M841.89,595.28v-68.13c-18.81,0-34.07,15.25-34.07,34.07s15.25,34.07,34.07,34.07Z"/><path class="j" d="M807.82,595.28v-68.13c-18.81,0-34.07,15.25-34.07,34.07s15.25,34.07,34.07,34.07Z"/><rect x="569.36" y="527.14" width="68.13" height="68.13" transform="translate(1206.85 1122.42) rotate(180)"/><rect class="j" x="637.49" y="527.14" width="68.13" height="68.13" transform="translate(1343.11 1122.42) rotate(180)"/><rect class="j" x="68.13" y="527.14" width="68.13" height="68.13" transform="translate(204.4 1122.42) rotate(180)"/><rect class="j" x="773.76" y="390.88" width="34.07" height="68.13" transform="translate(1581.58 849.88) rotate(180)"/><rect class="h" x="637.49" y="561.21" width="34.07" height="34.07" transform="translate(1309.05 1156.48) rotate(180)"/><g class="n"><g><rect class="i" x="808.96" y="303.5" width="5.27" height="145.55" transform="translate(135.21 961.75) rotate(-65.75)"/><rect class="i" x="805.19" y="311.88" width="5.27" height="145.55" transform="translate(125.35 963.25) rotate(-65.75)"/><rect class="i" x="801.42" y="320.25" width="5.27" height="145.55" transform="translate(115.5 964.75) rotate(-65.75)"/><rect class="i" x="797.64" y="328.62" width="5.27" height="145.55" transform="translate(105.64 966.24) rotate(-65.75)"/><rect class="i" x="793.87" y="337" width="5.27" height="145.55" transform="translate(95.78 967.74) rotate(-65.75)"/><rect class="i" x="790.1" y="345.37" width="5.27" height="145.55" transform="translate(85.93 969.23) rotate(-65.75)"/><rect class="i" x="786.33" y="353.74" width="5.27" height="145.55" transform="translate(76.07 970.73) rotate(-65.75)"/><rect class="i" x="782.56" y="362.12" width="5.27" height="145.55" transform="translate(66.21 972.23) rotate(-65.75)"/><rect class="i" x="778.79" y="370.49" width="5.27" height="145.55" transform="translate(56.35 973.72) rotate(-65.75)"/><rect class="i" x="775.02" y="378.86" width="5.27" height="145.55" transform="translate(46.5 975.22) rotate(-65.75)"/><rect class="i" x="771.24" y="387.24" width="5.27" height="145.55" transform="translate(36.64 976.71) rotate(-65.75)"/><rect class="i" x="767.47" y="395.61" width="5.27" height="145.55" transform="translate(26.78 978.21) rotate(-65.75)"/></g></g><rect class="h" x="671.56" y="527.14" width="34.07" height="34.07" transform="translate(1377.18 1088.35) rotate(180)"/><rect x="136.27" y="527.14" width="68.13" height="68.13" transform="translate(340.67 1122.42) rotate(180)"/><rect y="527.14" width="68.13" height="68.13" transform="translate(68.13 1122.42) rotate(180)"/><rect class="h" x="68.13" y="561.21" width="34.07" height="34.07" transform="translate(170.33 1156.48) rotate(180)"/><rect class="h" x="102.2" y="527.14" width="34.07" height="34.07" transform="translate(238.47 1088.35) rotate(180)"/><rect x="198.85" y="561.21" width="415.37" height="39.24"/></g></svg>