<?xml version="1.0" encoding="UTF-8"?><svg id="a" xmlns="http://www.w3.org/2000/svg" xmlns:xlink="http://www.w3.org/1999/xlink" viewBox="0 0 841.89 595.28"><defs><style>.d{fill:none;}.e,.f{fill:#00251a;}.g{fill:#0c9;}.h{fill:#fff;stroke-width:2px;}.h,.f{stroke:#00251a;stroke-miterlimit:10;}.f{stroke-width:.5px;}.i{clip-path:url(#c);}.j{clip-path:url(#b);}</style><clipPath id="b"><rect class="d" x="856.35" y="-10.33" width="854.8" height="610.78"/></clipPath><clipPath id="c"><rect class="d" x="861.89" y="136.27" width="68.13" height="68.13"/></clipPath></defs><rect class="g" width="373.44" height="32"/><rect class="g" x="-134.64" y="157.61" width="373.44" height="84.74" transform="translate(252.07 147.9) rotate(90)"/><rect class="g" x="797.89" y="235.54" width="50.18" height="359.73"/><rect class="g" x="459.88" y="231.43" width="50.18" height="649.81" transform="translate(1041.3 71.36) rotate(90)"/><path class="h" d="M155.31-91.31h482.06c27.16,0,49.22,22.05,49.22,49.22V686.58H204.53c-27.16,0-49.22-22.05-49.22-49.22V-91.31h0Z" transform="translate(718.58 -123.31) rotate(90)"/><path class="h" d="M42,311.42V81.22c0-21.62,17.59-39.22,39.22-39.22H799.89V494.96"/><path class="h" d="M393.06,146.45h6.54c27.16,0,49.22,22.05,49.22,49.22V924.34h-55.76V146.45h0Z" transform="translate(956.34 114.45) rotate(90)"/><g><path class="f" d="M302.04,124.15c1.83,1.77,2.85,3.78,3.05,6.03h-3.5c-.39-1.71-1.17-3.06-2.33-4.06-1.17-1-2.8-1.5-4.91-1.5-2.57,0-4.64,.92-6.22,2.76s-2.37,4.66-2.37,8.45c0,3.11,.71,5.63,2.14,7.57,1.43,1.93,3.55,2.9,6.38,2.9,2.6,0,4.58-1.02,5.95-3.05,.72-1.07,1.26-2.48,1.61-4.23h3.5c-.31,2.79-1.33,5.14-3.07,7.03-2.08,2.28-4.89,3.41-8.43,3.41-3.05,0-5.61-.93-7.68-2.8-2.73-2.47-4.09-6.29-4.09-11.44,0-3.92,1.02-7.13,3.07-9.64,2.21-2.72,5.27-4.09,9.16-4.09,3.32,0,5.9,.89,7.73,2.66Z"/><path class="f" d="M314,122.22h19.26v3.25h-15.75v8.06h14.56v3.07h-14.56v9h16.02v3.16h-19.53v-26.54Z"/><path class="f" d="M342.43,122.22h12.06c1.99,0,3.62,.3,4.91,.89,2.45,1.13,3.67,3.22,3.67,6.27,0,1.59-.33,2.89-.98,3.9-.66,1.01-1.57,1.82-2.75,2.44,1.04,.42,1.82,.98,2.34,1.66,.52,.69,.82,1.8,.88,3.34l.13,3.56c.04,1.01,.12,1.76,.25,2.26,.22,.84,.6,1.39,1.16,1.63v.6h-4.41c-.12-.23-.22-.52-.29-.89s-.13-1.06-.18-2.1l-.22-4.43c-.08-1.73-.71-2.9-1.88-3.49-.67-.33-1.71-.49-3.14-.49h-7.95v11.38h-3.6v-26.54Zm11.68,12.16c1.64,0,2.94-.34,3.89-1.01,.95-.67,1.43-1.89,1.43-3.65,0-1.89-.67-3.18-2-3.87-.71-.36-1.67-.54-2.86-.54h-8.54v9.07h8.08Z"/><path class="f" d="M391.02,122.22v3.16h-8.94v23.38h-3.63v-23.38h-8.94v-3.16h21.52Z"/><path class="f" d="M398.8,122.22h3.63v26.54h-3.63v-26.54Z"/><path class="f" d="M412.28,122.22h18.41v3.25h-14.81v8.06h13.03v3.16h-13.03v12.07h-3.6v-26.54Z"/><path class="f" d="M439.01,122.22h3.63v26.54h-3.63v-26.54Z"/><path class="f" d="M470.91,124.15c1.83,1.77,2.85,3.78,3.05,6.03h-3.5c-.39-1.71-1.17-3.06-2.33-4.06-1.17-1-2.8-1.5-4.91-1.5-2.57,0-4.64,.92-6.22,2.76s-2.37,4.66-2.37,8.45c0,3.11,.71,5.63,2.14,7.57,1.43,1.93,3.55,2.9,6.38,2.9,2.6,0,4.58-1.02,5.95-3.05,.72-1.07,1.26-2.48,1.62-4.23h3.5c-.31,2.79-1.33,5.14-3.07,7.03-2.08,2.28-4.89,3.41-8.43,3.41-3.05,0-5.61-.93-7.68-2.8-2.73-2.47-4.09-6.29-4.09-11.44,0-3.92,1.02-7.13,3.07-9.64,2.21-2.72,5.27-4.09,9.16-4.09,3.32,0,5.9,.89,7.73,2.66Z"/><path class="f" d="M490.24,122.22h4.06l9.63,26.54h-3.94l-2.69-7.95h-10.5l-2.87,7.95h-3.69l9.99-26.54Zm5.91,15.66l-4.03-11.73-4.28,11.73h8.31Z"/><path class="f" d="M527.43,122.22v3.16h-8.94v23.38h-3.63v-23.38h-8.94v-3.16h21.52Z"/><path class="f" d="M534.74,122.22h19.26v3.25h-15.75v8.06h14.56v3.07h-14.56v9h16.03v3.16h-19.53v-26.54Z"/></g><g><path class="e" d="M440.8,90.78l-8.17-14.15c-.64-1.12-2.23-2.03-3.51-2.03h-16.34c-1.29,0-2.87,.91-3.51,2.03l-8.17,14.15c-.64,1.12-.64,2.94,0,4.06l8.17,14.15c.64,1.12,2.23,2.03,3.51,2.03h16.34c1.29,0,2.87-.91,3.51-2.03l8.17-14.15c.64-1.12,.64-2.94,0-4.06Zm-3.28,2.72l-7.68,13.31c-.17,.3-.86,.7-1.21,.7h-15.36c-.35,0-1.03-.4-1.21-.7l-7.68-13.31c-.17-.3-.17-1.09,0-1.39l7.68-13.31c.17-.3,.86-.7,1.21-.7h15.36c.35,0,1.03,.4,1.21,.7l7.68,13.31c.17,.3,.17,1.09,0,1.39Z"/><rect class="e" x="408.81" y="93.04" width="12.14" height="2.58"/><rect class="e" x="411.19" y="97.66" width="9.76" height="2.58"/><rect class="e" x="413.57" y="102.29" width="7.38" height="2.58"/></g><rect y="563.26" width="32.01" height="32.01"/><rect y="499.24" width="32.01" height="32.01"/><rect x="64.03" y="563.26" width="32.01" height="32.01"/><rect x="128.05" y="563.26" width="32.01" height="32.01"/><rect x="32.01" y="531.25" width="32.01" height="32.01"/><rect x="96.04" y="531.25" width="32.01" height="32.01"/><rect x="809.88" width="32.01" height="32.01" transform="translate(1651.77 32.01) rotate(180)"/><rect x="809.88" y="64.03" width="32.01" height="32.01" transform="translate(1651.77 160.07) rotate(180)"/><rect x="745.85" width="32.01" height="32.01" transform="translate(1523.71 32.01) rotate(180)"/><rect x="681.82" width="32.01" height="32.01" transform="translate(1395.66 32.01) rotate(180)"/><rect x="777.86" y="32.01" width="32.01" height="32.01" transform="translate(1587.74 96.04) rotate(180)"/><rect x="713.84" y="32.01" width="32.01" height="32.01" transform="translate(1459.69 96.04) rotate(180)"/><rect x="578.35" y="331.73" width="516.26" height="21.18" transform="translate(1178.79 -494.15) rotate(90)"/><rect x="144.06" y="578.68" width="683.94" height="16.59" transform="translate(972.06 1173.95) rotate(180)"/><rect x="-252.54" y="242.16" width="516.26" height="21.18" transform="translate(-247.16 258.34) rotate(-90)"/><rect x="14.07" y="-.19" width="683.94" height="16.59"/><g class="j"><g class="i"><g><rect class="f" x="774.52" y="163.93" width="145.55" height="5.27" transform="translate(347.47 870.71) rotate(-65.75)"/><rect class="f" x="782.89" y="167.7" width="145.55" height="5.27" transform="translate(348.97 880.57) rotate(-65.75)"/><rect class="f" x="791.27" y="171.47" width="145.55" height="5.27" transform="translate(350.46 890.43) rotate(-65.75)"/><rect class="f" x="799.64" y="175.24" width="145.55" height="5.27" transform="translate(351.96 900.28) rotate(-65.75)"/></g></g></g></svg>